<svg id="visual" viewBox="0 0 900 300" width="900" height="300" xmlns="http://www.w3.org/2000/svg" xmlns:xlink="http://www.w3.org/1999/xlink" version="1.1"><path d="M0 190L15 191.8C30 193.7 60 197.3 90 198.3C120 199.3 150 197.7 180 197.5C210 197.3 240 198.7 270 196.3C300 194 330 188 360 184.3C390 180.7 420 179.3 450 178.7C480 178 510 178 540 179.7C570 181.3 600 184.7 630 188.2C660 191.7 690 195.3 720 194C750 192.7 780 186.3 810 188C840 189.7 870 199.3 885 204.2L900 209L900 301L885 301C870 301 840 301 810 301C780 301 750 301 720 301C690 301 660 301 630 301C600 301 570 301 540 301C510 301 480 301 450 301C420 301 390 301 360 301C330 301 300 301 270 301C240 301 210 301 180 301C150 301 120 301 90 301C60 301 30 301 15 301L0 301Z" fill="#0c2b3f" stroke-linecap="round" stroke-linejoin="miter"></path></svg>