<?xml version="1.0" encoding="utf-8"?>
<!DOCTYPE svg PUBLIC "-//W3C//DTD SVG 1.0//EN" "http://www.w3.org/TR/2001/REC-SVG-20010904/DTD/svg10.dtd">
<svg version="1.0" xmlns="http://www.w3.org/2000/svg" width="1280px" height="129px" viewBox="0 0 1280 129" preserveAspectRatio="xMidYMid meet">
 <g fill="#ffffff">
  <path d="M0 87.1 l0 -41.9 5.8 -2.1 c41.7 -15.2 121.9 -31 190.7 -37.5 70.3 -6.7 151.1 -6.5 226 0.5 71.9 6.7 135.3 18.1 217 38.9 99.1 25.3 175.4 37.5 269.5 43.1 26.6 1.6 102.9 1.6 128.5 0.1 87.2 -5.4 169.3 -19.3 228.8 -38.5 l13.7 -4.5 0 41.9 0 41.9 -640 0 -640 0 0 -41.9z"/>
 </g>
<g opacity="0.5" transform="rotate(-45, 640.0, 64.5)">
  <text x="50%" y="50%" font-size="20" text-anchor="middle" fill="lightgray" dominant-baseline="middle">
    generated by vectorizer.io
  </text>
</g>
</svg>